# xmcd
#
# Track frame offsets:
#	150
#	15481
#	28474
#	39730
#	56778
#	68144
#	81679
#	94622
#	103374
#	113319
#	125698
#	138410
#	149713
#
# Disc length: 2187 seconds
# Revision: 2
# Processed by: cddbd v1.5.2PL0 Copyright (c) Steve Scherf et al.
# Submitted via: dBpowerAMP V12.0
#
DISCID=c508890d
DTITLE=Loretta Lynn - Wouldn't It Be Great
DYEAR=2018
DGENRE=Country
TTITLE0=Wouldn't It Be Great
TTITLE1=Ruby's Stool
TTITLE2=I'm Dying For Someone To Live For
TTITLE3=Another Bridge To Burn
TTITLE4=Ain't No Time To Go
TTITLE5=God Makes No Mistakes
TTITLE6=These Ole Blues
TTITLE7=My Angel Mother
TTITLE8=Don't Come Home A Drinkin'
TTITLE9=The Big Man
TTITLE10=Lulie Vars
TTITLE11=Darkest Day
TTITLE12=Coal Miner's Daughter
EXTD=
EXTT0=
EXTT1=
EXTT2=
EXTT3=
EXTT4=
EXTT5=
EXTT6=
EXTT7=
EXTT8=
EXTT9=
EXTT10=
EXTT11=
EXTT12=
PLAYORDER=
